# xmcd CD database file
#
# Track frame offsets:
#	150
#	36505
#	64840
#	103000
#
# Disc length: 1754 seconds
#
# Revision: 0
# Processed by: cddbd v1.4PL0 Copyright (c) Steve Scherf et al.
# Submitted via: CDex 1.50
#
DISCID=3406d804
DTITLE=The Great Jazz Trio - Direct From L.A.
DYEAR=1977
DGENRE=Jazz
TTITLE0=A Night In Tunisia
TTITLE1='Round About Midnight
TTITLE2=Satin Doll
TTITLE3=My Funny Valentine
EXTD=YEAR: 1977
EXTT0=
EXTT1=
EXTT2=
EXTT3=
PLAYORDER=
